<svg width="14" height="14" viewBox="0 0 14 14" fill="none" xmlns="http://www.w3.org/2000/svg">
<path d="M8.20689 8.86233L7.78743 9.28183C7.67537 9.39402 7.50837 9.43091 7.35948 9.37637C6.94229 9.22295 6.42037 8.83346 5.79373 8.20677C5.16766 7.58065 4.77764 7.05869 4.6248 6.6409C4.57012 6.49211 4.60679 6.32511 4.71877 6.21292L5.13879 5.79343C5.91261 5.01955 5.98337 3.8007 5.30125 2.99173L4.80877 2.40636C4.24667 1.73778 3.23397 1.67041 2.5462 2.25521C2.29041 2.47566 2.09812 2.76041 1.98919 3.08004C1.94211 3.21918 1.9117 3.36342 1.89861 3.50972C1.64671 5.3796 2.54846 7.34232 4.60329 9.39731C6.65812 11.4523 8.62012 12.3536 10.4904 12.1016C10.9763 12.0553 11.4256 11.8233 11.7448 11.454C12.3301 10.7667 12.2622 9.7534 11.5942 9.19125L11.0089 8.69816C10.1989 8.01713 8.9807 8.08846 8.20689 8.86233ZM6.60189 7.39868C6.90121 7.69803 7.16224 7.92507 7.37326 8.07972C8.58656 6.86632 10.4745 6.75573 11.7452 7.82412L12.3301 8.31684C13.4897 9.29272 13.6057 11.0317 12.6094 12.2014C12.0978 12.7932 11.3778 13.165 10.643 13.2343C8.36749 13.5408 6.07914 12.4896 3.79514 10.2054C1.51108 7.92116 0.45951 5.63215 0.760304 3.40788C0.78145 3.17153 0.830564 2.93853 0.907422 2.71138C1.08199 2.19913 1.39017 1.74279 1.80589 1.38454C2.97004 0.394693 4.70807 0.51065 5.68329 1.67061L6.17498 2.25502C7.24477 3.52378 7.13517 5.4132 5.9464 6.60206C6.07551 6.83829 6.30245 7.09922 6.60189 7.39868Z" fill="#232323"/>
</svg>
